name rise31.4854peak64.571fall78.6902.mot
datacolumns 19
datarows 23
range 1.51499500000000 1.55166600000000
endheader
time	ground_force1_vx	ground_force1_vy	ground_force1_vz	ground_force1_px	ground_force1_py	ground_force1_pz	ground_force2_vx	ground_force2_vy	ground_force2_vz	ground_force2_px	ground_force2_py	ground_force2_pz	ground_torque1_x	ground_torque1_y	ground_torque1_z	ground_torque2_x	ground_torque2_y	ground_torque2_z	
1.51499500000000	-6.27104300000000	45.22289100000000	-13.66982000000000	0.33308800000000	0.00000000000000	0.07386800000000	-48.26672200000000	807.26054599999998	-44.38264900000000	0.08853900000000	0.00000000000000	-0.08036700000000	0.00000000000000	-9.15877600000000	0.00000000000000	0.00000000000000	-14.01391400000000	0.00000000000000	
1.51666000000000	-6.69398300000000	51.45991200000000	-15.10040900000000	0.33420100000000	0.00000000000000	0.07489900000000	-49.12333800000000	805.20577600000001	-44.01124200000000	0.08773700000000	0.00000000000000	-0.08024800000000	0.00000000000000	-10.15901300000000	0.00000000000000	0.00000000000000	-14.03430100000000	0.00000000000000	
1.51832900000000	-6.98663500000000	57.57735900000000	-16.37614300000000	0.33529100000000	0.00000000000000	0.07586500000000	-50.00163700000000	803.05865700000004	-43.62943800000000	0.08693000000000	0.00000000000000	-0.08012800000000	0.00000000000000	-11.06641000000000	0.00000000000000	0.00000000000000	-14.05965500000000	0.00000000000000	
1.51999500000000	-7.13937300000000	63.51218300000000	-17.47632400000000	0.33636400000000	0.00000000000000	0.07677200000000	-50.90093600000000	800.81652899999995	-43.23707500000000	0.08612000000000	0.00000000000000	-0.08000600000000	0.00000000000000	-11.86714900000000	0.00000000000000	0.00000000000000	-14.08986200000000	0.00000000000000	
1.52166000000000	-7.14893000000000	69.22769800000000	-18.39092500000000	0.33742300000000	0.00000000000000	0.07762800000000	-51.82045900000000	798.47663200000000	-42.83398600000000	0.08530600000000	0.00000000000000	-0.07988400000000	0.00000000000000	-12.55431400000000	0.00000000000000	0.00000000000000	-14.12478600000000	0.00000000000000	
1.52332500000000	-7.01779600000000	74.71273100000001	-19.11986100000000	0.33847100000000	0.00000000000000	0.07843700000000	-52.75933200000000	796.03610600000002	-42.41999700000000	0.08448900000000	0.00000000000000	-0.07976000000000	0.00000000000000	-13.12745700000000	0.00000000000000	0.00000000000000	-14.16427200000000	0.00000000000000	
1.52500000000000	-6.75325700000000	79.97880200000000	-19.67155800000000	0.33951200000000	0.00000000000000	0.07920400000000	-53.71658800000000	793.49200099999996	-41.99493000000000	0.08366900000000	0.00000000000000	-0.07963500000000	0.00000000000000	-13.59169300000000	0.00000000000000	0.00000000000000	-14.20814700000000	0.00000000000000	
1.52666600000000	-6.36619700000000	85.05593300000000	-20.06108200000000	0.34054600000000	0.00000000000000	0.07993400000000	-54.69116300000000	790.84128399999997	-41.55860500000000	0.08284700000000	0.00000000000000	-0.07950900000000	0.00000000000000	-13.95651200000000	0.00000000000000	0.00000000000000	-14.25622000000000	0.00000000000000	
1.52832600000000	-5.86982200000000	89.98765600000000	-20.30803100000000	0.34157600000000	0.00000000000000	0.08062900000000	-55.68189900000000	788.08084399999996	-41.11084300000000	0.08202400000000	0.00000000000000	-0.07938200000000	0.00000000000000	-14.23441800000000	0.00000000000000	0.00000000000000	-14.30828200000000	0.00000000000000	
1.52999500000000	-5.27841400000000	94.82577600000000	-20.43444200000000	0.34260200000000	0.00000000000000	0.08129200000000	-56.68754200000000	785.20750599999997	-40.65146700000000	0.08120000000000	0.00000000000000	-0.07925300000000	0.00000000000000	-14.43957100000000	0.00000000000000	0.00000000000000	-14.36410400000000	0.00000000000000	
1.53166600000000	-4.60621500000000	99.62536000000000	-20.46284000000000	0.34362300000000	0.00000000000000	0.08192700000000	-57.70674200000000	782.21803799999998	-40.18030300000000	0.08037500000000	0.00000000000000	-0.07912300000000	0.00000000000000	-14.58651600000000	0.00000000000000	0.00000000000000	-14.42344300000000	0.00000000000000	
1.53333100000000	-3.86650100000000	104.44031000000000	-20.41459700000000	0.34464000000000	0.00000000000000	0.08253400000000	-58.73805800000000	779.10915799999998	-39.69718800000000	0.07955100000000	0.00000000000000	-0.07899200000000	0.00000000000000	-14.68909600000000	0.00000000000000	0.00000000000000	-14.48603700000000	0.00000000000000	
1.53499600000000	-3.07090400000000	109.31977100000000	-20.30865000000000	0.34565300000000	0.00000000000000	0.08311800000000	-59.77995400000000	775.87754900000004	-39.20196400000000	0.07872700000000	0.00000000000000	-0.07886000000000	0.00000000000000	-14.75960500000000	0.00000000000000	0.00000000000000	-14.55160800000000	0.00000000000000	
1.53666300000000	-2.22896100000000	114.30549400000000	-20.16063200000000	0.34666000000000	0.00000000000000	0.08367800000000	-60.83080300000000	772.51986799999997	-38.69448800000000	0.07790400000000	0.00000000000000	-0.07872700000000	0.00000000000000	-14.80820000000000	0.00000000000000	0.00000000000000	-14.61986100000000	0.00000000000000	
1.53832800000000	-1.34792000000000	119.43020400000000	-19.98239400000000	0.34766100000000	0.00000000000000	0.08421800000000	-61.88888800000000	769.03275599999995	-38.17463100000000	0.07708300000000	0.00000000000000	-0.07859200000000	0.00000000000000	-14.84257100000000	0.00000000000000	0.00000000000000	-14.69048900000000	0.00000000000000	
1.53999500000000	-0.43273700000000	124.71690200000000	-19.78190300000000	0.34865400000000	0.00000000000000	0.08473700000000	-62.95240600000000	765.41285300000004	-37.64227800000000	0.07626500000000	0.00000000000000	-0.07845600000000	0.00000000000000	-14.86785500000000	0.00000000000000	0.00000000000000	-14.76316800000000	0.00000000000000	
1.54166400000000	0.51373900000000	130.17898900000000	-19.56344100000000	0.34963800000000	0.00000000000000	0.08523800000000	-64.01946800000000	761.65680799999996	-37.09733800000000	0.07544900000000	0.00000000000000	-0.07831900000000	0.00000000000000	-14.88674800000000	0.00000000000000	0.00000000000000	-14.83756000000000	0.00000000000000	
1.54332800000000	1.49046400000000	135.82105600000000	-19.32803600000000	0.35061200000000	0.00000000000000	0.08572100000000	-65.08810099999999	757.76129100000003	-36.53973700000000	0.07463600000000	0.00000000000000	-0.07818000000000	0.00000000000000	-14.89977900000000	0.00000000000000	0.00000000000000	-14.91331400000000	0.00000000000000	
1.54499200000000	2.49781300000000	141.64014800000001	-19.07406500000000	0.35157300000000	0.00000000000000	0.08618700000000	-66.15625300000001	753.72301100000004	-35.96942800000000	0.07382700000000	0.00000000000000	-0.07804100000000	0.00000000000000	-14.90569100000000	0.00000000000000	0.00000000000000	-14.99006700000000	0.00000000000000	
1.54666300000000	3.53715900000000	147.62733399999999	-18.79793300000000	0.35252000000000	0.00000000000000	0.08663800000000	-67.22179700000000	749.53872600000000	-35.38638900000000	0.07302200000000	0.00000000000000	-0.07789900000000	0.00000000000000	-14.90189000000000	0.00000000000000	0.00000000000000	-15.06744300000000	0.00000000000000	
1.54832900000000	4.61044900000000	153.76939700000000	-18.49477600000000	0.35345200000000	0.00000000000000	0.08707400000000	-68.28253300000000	745.20525899999996	-34.79062700000000	0.07222100000000	0.00000000000000	-0.07775700000000	0.00000000000000	-14.88489800000000	0.00000000000000	0.00000000000000	-15.14505700000000	0.00000000000000	
1.54999400000000	5.71981400000000	160.05050100000000	-18.15913000000000	0.35436600000000	0.00000000000000	0.08749500000000	-69.33619100000000	740.71951400000000	-34.18217900000000	0.07142600000000	0.00000000000000	-0.07761200000000	0.00000000000000	-14.85080400000000	0.00000000000000	0.00000000000000	-15.22251400000000	0.00000000000000	
1.55166600000000	6.86723900000000	166.45371900000001	-17.78551400000000	0.35526000000000	0.00000000000000	0.08790300000000	-70.38043900000000	736.07849199999998	-33.56111300000000	0.07063500000000	0.00000000000000	-0.07746700000000	0.00000000000000	-14.79564700000000	0.00000000000000	0.00000000000000	-15.29940700000000	0.00000000000000	
